# xmcd
#
# Track frame offsets:
#	150
#	18525
#	35311
#	50478
#	68254
#	88879
#	105036
#	119887
#	132783
#	148158
#	163510
#	181326
#	199070
#
# Disc length: 3025 seconds
#
# Revision: 0
# Processed by: cddbd v1.4PL0 Copyright (c) Steve Scherf et al.
# Submitted via: dBpowerAMP V4.0
#
DISCID=ae0bcf0d
DTITLE=rosanne coleman - pretty good music
DYEAR=1900
DGENRE=
TTITLE0=nick of time
TTITLE1=get up, get ready
TTITLE2=glory land
TTITLE3=near the heart of God
TTITLE4=unclean
TTITLE5=broken things
TTITLE6=the way of Jesus
TTITLE7=sets my soul on fire
TTITLE8=slip away
TTITLE9=broken for love
TTITLE10=to mother you
TTITLE11=audrey, I love you
TTITLE12=finally (my Jesus, I love thee)
EXTD=christian.
EXTT0=
EXTT1=
EXTT2=
EXTT3=
EXTT4=
EXTT5=
EXTT6=
EXTT7=
EXTT8=
EXTT9=
EXTT10=
EXTT11=
EXTT12=
PLAYORDER=
